<svg xmlns="http://www.w3.org/2000/svg" xmlns:xlink="http://www.w3.org/1999/xlink" viewBox="0 0 14.5 22.5"><defs><style>.cls-1{opacity:0.8;isolation:isolate;fill:url(#radial-gradient);}.cls-2{fill:none;}.cls-3{fill:#47546a;}.cls-4{fill:#d8dadc;}</style><radialGradient id="radial-gradient" cx="-1548.07" cy="635.57" r="0.5" gradientTransform="matrix(12, 0, 0, -5, 18584.07, 3197.86)" gradientUnits="userSpaceOnUse"><stop offset="0"/><stop offset="1" stop-color="#232323" stop-opacity="0"/></radialGradient></defs><g id="Layer_2" data-name="Layer 2"><g id="_Layer_" data-name="&lt;Layer&gt;"><ellipse id="타원_17698" data-name="타원 17698" class="cls-1" cx="7.25" cy="20" rx="6" ry="2.5"/><path class="cls-2" d="M8.84,5.44a2.22,2.22,0,0,0-1.58-.65h0a2.24,2.24,0,1,0,0,4.47h0A2.23,2.23,0,0,0,8.84,5.44Z"/><path class="cls-3" d="M7.28,1H7.22A6.23,6.23,0,0,0,1,7.2c0,3,4.85,8.89,6.25,10.54,1.4-1.65,6.25-7.56,6.25-10.54A6.24,6.24,0,0,0,7.28,1ZM9.55,9.32a3.22,3.22,0,0,1-2.29.94h0a3.24,3.24,0,1,1,0-6.47h0A3.24,3.24,0,0,1,10.51,7,3.19,3.19,0,0,1,9.55,9.32Z"/><path class="cls-4" d="M7.28,0h0A7.2,7.2,0,0,0,0,7.2c0,3.85,6.6,11.32,6.88,11.63l.37.42.37-.42C7.9,18.52,14.5,11,14.5,7.19A7.24,7.24,0,0,0,7.28,0Zm0,17.74C5.85,16.09,1,10.18,1,7.2A6.23,6.23,0,0,1,7.22,1h.06A6.24,6.24,0,0,1,13.5,7.2C13.5,10.18,8.65,16.09,7.25,17.74Z"/><path class="cls-4" d="M7.26,3.79h0a3.24,3.24,0,1,0,0,6.47h0a3.22,3.22,0,0,0,2.29-.94,3.22,3.22,0,0,0,0-4.59A3.22,3.22,0,0,0,7.26,3.79Zm0,5.47h0a2.24,2.24,0,1,1,0-4.47h0a2.24,2.24,0,1,1,0,4.47Z"/></g></g></svg>