<?xml version="1.0" encoding="utf-8"?>
<!-- Generator: Adobe Illustrator 24.0.2, SVG Export Plug-In . SVG Version: 6.00 Build 0)  -->
<svg version="1.1" id="Layer_1" xmlns="http://www.w3.org/2000/svg" xmlns:xlink="http://www.w3.org/1999/xlink" x="0px" y="0px"
	 viewBox="0 0 13 13" style="enable-background:new 0 0 13 13;" xml:space="preserve">
<style type="text/css">
	.st0{fill:#D8DADC;}
</style>
<path class="st0" d="M6.5,0C2.9,0,0,2.9,0,6.5S2.9,13,6.5,13S13,10.1,13,6.5S10.1,0,6.5,0z M10,10c-0.3,0.3-0.7,0.3-1,0l0,0L6.5,7.6
	L4,10c-0.3,0.3-0.7,0.3-1,0S2.7,9.3,3,9l2.4-2.5L3,4C2.7,3.7,2.7,3.3,3,3s0.7-0.3,1,0l2.5,2.4L9,3c0.3-0.3,0.7-0.3,1,0s0.3,0.7,0,1
	L7.6,6.5L10,9l0,0C10.3,9.3,10.3,9.7,10,10z"/>
</svg>
