<svg xmlns="http://www.w3.org/2000/svg" viewBox="0 0 16 16.66"><defs><style>.cls-1{fill:#47546a;}</style></defs><g id="Layer_2" data-name="Layer 2"><g id="keylines"><g id="그룹_5052" data-name="그룹 5052"><path id="패스_2458-3" data-name="패스 2458-3" class="cls-1" d="M14.67,1.66H12.09V.59a.59.59,0,0,0-1.18,0V1.66H5.09V.59a.59.59,0,0,0-1.18,0V1.66H1.33A1.33,1.33,0,0,0,0,3H0V15.32a1.34,1.34,0,0,0,1.33,1.34H14.67A1.34,1.34,0,0,0,16,15.32h0V3A1.33,1.33,0,0,0,14.67,1.66Zm-13.34,1H3.91v.93a.59.59,0,0,0,1.18,0V2.66h5.82v.93a.59.59,0,0,0,1.18,0V2.66h2.58A.33.33,0,0,1,15,3V6.16H1V3a.33.33,0,0,1,.33-.33Zm13.34,13H1.33A.34.34,0,0,1,1,15.32V7.16H15v8.16A.34.34,0,0,1,14.67,15.66Z"/></g></g></g></svg>