<svg xmlns="http://www.w3.org/2000/svg" viewBox="0 0 141.73 19.78"><defs><style>.cls-1{fill:#fff;}.cls-2{fill:#008ed8;}</style></defs><title>eartheye_Logo_text</title><g id="Layer_2" data-name="Layer 2"><g id="Layer_1-2" data-name="Layer 1"><g id="그룹_3433" data-name="그룹 3433"><path id="패스_1290" data-name="패스 1290" class="cls-1" d="M12.31,19.77H0V.18H12.93V2.64a.42.42,0,0,1-.42.42H3.43V8.45H11v2.38a.42.42,0,0,1-.43.42H3.43v5.64h9.31v2.46A.42.42,0,0,1,12.31,19.77Z"/><path id="패스_1291" data-name="패스 1291" class="cls-1" d="M45.61,11.94a5.93,5.93,0,0,0,2.77-2,5.58,5.58,0,0,0,1.09-3.5,5.68,5.68,0,0,0-1.93-4.6A8,8,0,0,0,42.23.18H36.05a.42.42,0,0,0-.43.42h0V19.34a.43.43,0,0,0,.43.43h3V3.06h3.26A4.11,4.11,0,0,1,45,3.93a3.58,3.58,0,0,1,0,4.93,3.81,3.81,0,0,1-2.65.87H41l5.05,9.81a.43.43,0,0,0,.38.23h3.41Z"/><path id="패스_1292" data-name="패스 1292" class="cls-1" d="M64.68,3.06H60.46V19.77H57.2a.17.17,0,0,1-.17-.16h0V3.06H51.48a.16.16,0,0,1-.16-.16h0V.18H66.18L65.08,2.8A.43.43,0,0,1,64.68,3.06Z"/><path id="패스_1293" data-name="패스 1293" class="cls-1" d="M72.43,8.45V.18H69V19.6a.17.17,0,0,0,.17.17h3.26V11.25h6a.41.41,0,0,0,.39-.25L80,8.45Z"/><path id="패스_1294" data-name="패스 1294" class="cls-1" d="M81.3.18V19.6a.17.17,0,0,0,.17.17h3.26V.18Z"/><path id="패스_1295" data-name="패스 1295" class="cls-2" d="M98.59,11.26h7.23a.42.42,0,0,0,.43-.42h0V8.14H98.59V3.53h8.53a.43.43,0,0,0,.43-.43h0V.3h-13V19.65h12.55a.42.42,0,0,0,.42-.43h0V16.45h-9Z"/><path id="패스_1296" data-name="패스 1296" class="cls-2" d="M118,8.69,113.67.55a.43.43,0,0,0-.38-.25h-3.5l6.35,12.33v7h3.63a.42.42,0,0,0,.42-.43V12.63L126.55.3h-3.49a.43.43,0,0,0-.38.25l-4.37,8.14a.16.16,0,0,1-.22.08A.3.3,0,0,1,118,8.69Z"/><path id="패스_1297" data-name="패스 1297" class="cls-2" d="M132.75,16.45V11.26H140a.42.42,0,0,0,.42-.42h0V8.14h-7.65V3.53h8.53a.43.43,0,0,0,.43-.43h0V.3h-13V19.65H141.3a.43.43,0,0,0,.43-.43V16.45Z"/><path id="패스_1298" data-name="패스 1298" class="cls-1" d="M24.09.1,14.91,19.77h3.32a.43.43,0,0,0,.39-.25l1-2.33c.42-1,2.9-6.07,4.43-9.75a.19.19,0,0,1,.25-.11.2.2,0,0,1,.11.11c.89,2.3,3.18,7,4.28,9.51l1.15,2.58a.43.43,0,0,0,.38.25h3.32L24.41.1A.18.18,0,0,0,24.17,0,.11.11,0,0,0,24.09.1Z"/></g></g></g></svg>