<?xml version="1.0" encoding="utf-8"?>
<!-- Generator: Adobe Illustrator 24.0.2, SVG Export Plug-In . SVG Version: 6.00 Build 0)  -->
<svg version="1.1" id="Layer_1" xmlns="http://www.w3.org/2000/svg" xmlns:xlink="http://www.w3.org/1999/xlink" x="0px" y="0px"
	 viewBox="0 0 12 12" style="enable-background:new 0 0 12 12;" xml:space="preserve">
<style type="text/css">
	.st0{fill:#D9320B;}
</style>
<title>icon_notice_1</title>
<g id="Layer_2_1_">
	<g id="Layer_1-2">
		<g id="그룹_3515">
			<path id="패스_1537" class="st0" d="M11.8,9.3L7.7,1C7.2,0.1,6.1-0.3,5.2,0.2C4.8,0.4,4.5,0.7,4.3,1L0.2,9.3
				c-0.5,0.9-0.1,2,0.8,2.5C1.3,11.9,1.5,12,1.8,12h8.3c1,0,1.9-0.8,1.9-1.8C12,9.9,11.9,9.6,11.8,9.3z M6.9,9.6
				c0,0.5-0.4,0.9-0.9,0.9l0,0c-0.5,0-0.9-0.4-0.9-0.9c0-0.5,0.4-0.9,0.9-0.9S6.9,9.1,6.9,9.6L6.9,9.6L6.9,9.6L6.9,9.6L6.9,9.6z
				 M6.7,7.4c0,0.4-0.3,0.7-0.7,0.7S5.3,7.8,5.3,7.5l0,0c0-1.2-0.2-3.9-0.2-4.2c0-0.5,0.3-0.9,0.7-1s0.8,0.1,1,0.5
				C6.9,3,6.9,3.1,6.9,3.3C6.9,3.7,6.7,7.2,6.7,7.4z"/>
		</g>
	</g>
</g>
</svg>
