<?xml version="1.0" encoding="utf-8"?>
<!-- Generator: Adobe Illustrator 24.0.2, SVG Export Plug-In . SVG Version: 6.00 Build 0)  -->
<svg version="1.1" id="Layer_1" xmlns="http://www.w3.org/2000/svg" xmlns:xlink="http://www.w3.org/1999/xlink" x="0px" y="0px"
	 viewBox="0 0 19 18" style="enable-background:new 0 0 19 18;" xml:space="preserve">
<style type="text/css">
	.st0{fill:#47546A;}
</style>
<title>icon_logout</title>
<g id="Layer_2_1_">
	<g id="Layer_1-2">
		<g id="icon_logout">
			<path id="합치기_30-2" class="st0" d="M0.8,18C0.3,18,0,17.7,0,17.3c0,0,0,0,0,0V0.7C0,0.3,0.3,0,0.7,0c0,0,0,0,0,0h12
				c0.4,0,0.7,0.3,0.7,0.7c0,0,0,0,0,0v3h-1V1.2c0-0.1-0.1-0.2-0.2-0.2h-11C1.1,1,1,1.1,1,1.2v15.6C1,16.9,1.1,17,1.2,17h11
				c0.1,0,0.2-0.1,0.2-0.2v-2.5h1v3c0,0.4-0.3,0.7-0.7,0.7c0,0,0,0,0,0L0.8,18z M15,11.6l2-2.1H5v-1h12l-2-2.1l0.7-0.7L19,9
				l-3.3,3.3L15,11.6z"/>
		</g>
	</g>
</g>
</svg>
