<?xml version="1.0" encoding="utf-8"?>
<!-- Generator: Adobe Illustrator 24.0.2, SVG Export Plug-In . SVG Version: 6.00 Build 0)  -->
<svg version="1.1" id="Layer_1" xmlns="http://www.w3.org/2000/svg" xmlns:xlink="http://www.w3.org/1999/xlink" x="0px" y="0px"
	 viewBox="0 0 11 11" style="enable-background:new 0 0 11 11;" xml:space="preserve">
<style type="text/css">
	.st0{fill:#47546A;}
</style>
<title>icon_Satellite</title>
<g id="Layer_2_1_">
	<g id="Layer_1-2">
		<g id="icon_Satellite">
			<path id="패스_1317" class="st0" d="M10.8,5.7L10.8,5.7L9.1,4l1-1c0.3-0.3,0.3-0.7,0-1l-1-1c-0.3-0.3-0.7-0.3-1,0l0,0l-1,1
				L5.3,0.2C5.2,0.1,5,0,4.8,0C4.6,0,4.5,0.1,4.3,0.2l-2,2.1C2,2.5,2,3,2.2,3.2l0,0L4,5L3.8,5.2C2.6,4.7,1.3,4.7,0.2,5.3
				C0,5.4-0.1,5.5,0,5.7l0,0l0,0l0.1,0.1l2.3,2.3L2,8.5H1.8c-0.4,0-0.7,0.3-0.7,0.7s0.3,0.7,0.7,0.7s0.7-0.3,0.7-0.7l0,0
				c0-0.1,0-0.1,0-0.2l0.4-0.4l2.3,2.3c0.1,0.1,0.3,0.1,0.4,0l0,0l0.1-0.1c0.6-1.1,0.6-2.5,0.1-3.6L6,7l1.8,1.7C8,9,8.4,9,8.7,8.8
				l0,0l2.1-2.1C11.1,6.4,11.1,6,10.8,5.7L10.8,5.7L10.8,5.7z M4.7,4.2L3.2,2.8l1.6-1.6l1.5,1.5L4.7,4.2z M8.2,7.8L6.8,6.3l1.6-1.6
				l1.5,1.5L8.2,7.8z"/>
		</g>
	</g>
</g>
</svg>
