<?xml version="1.0" encoding="utf-8"?>
<!-- Generator: Adobe Illustrator 24.0.2, SVG Export Plug-In . SVG Version: 6.00 Build 0)  -->
<svg version="1.1" id="Layer_1" xmlns="http://www.w3.org/2000/svg" xmlns:xlink="http://www.w3.org/1999/xlink" x="0px" y="0px"
	 viewBox="0 0 40 40" style="enable-background:new 0 0 40 40;" xml:space="preserve">
<style type="text/css">
	.st0{fill:#6899EB;}
</style>
<title>icon_GeoJSON</title>
<g id="Layer_2_1_">
	<g id="Layer_1-2">
		<path id="icon_GeoJSON" class="st0" d="M20,0C9,0,0,9,0,20s9,20,20,20s20-9,20-20S31,0,20,0z M20,39C9.5,39,1,30.5,1,20
			S9.5,1,20,1s19,8.5,19,19S30.5,39,20,39z M15.4,18.6c-0.5-0.1-1-0.3-1.4-0.6c-0.3-0.2-0.4-0.5-0.4-0.8c0-0.3,0.1-0.7,0.4-0.9
			c0.3-0.2,0.7-0.3,1.1-0.3c0.4,0,0.9,0.1,1.2,0.4c0.3,0.3,0.5,0.7,0.5,1.1H18l0,0c0-0.7-0.3-1.4-0.8-1.8c-0.6-0.5-1.4-0.8-2.2-0.8
			c-0.8,0-1.5,0.2-2.1,0.7c-0.5,0.4-0.8,1-0.8,1.7c0,0.6,0.3,1.2,0.8,1.6c0.6,0.5,1.4,0.8,2.1,1c0.5,0.1,0.9,0.3,1.3,0.6
			c0.2,0.2,0.4,0.5,0.4,0.9c0,0.3-0.1,0.7-0.4,0.9c-0.3,0.2-0.8,0.3-1.2,0.3c-0.5,0-0.9-0.1-1.3-0.4c-0.4-0.3-0.6-0.7-0.5-1.2h-1.4
			l0,0c-0.1,0.8,0.3,1.5,0.9,2c0.7,0.5,1.5,0.7,2.3,0.7c0.8,0,1.5-0.2,2.2-0.6c0.5-0.4,0.9-1,0.8-1.7c0-0.6-0.2-1.2-0.7-1.7
			C16.8,19.2,16.1,18.8,15.4,18.6z M33,15v6.1l0,0L29.2,15h-1.4v8.5h1.4v-6.1l0,0l3.8,6.1h1.4V15H33z M9,21c0,0.4-0.1,0.8-0.4,1.1
			c-0.2,0.3-0.6,0.4-0.9,0.4c-0.4,0-0.7-0.1-1-0.4c-0.3-0.3-0.4-0.7-0.3-1.1H5l0,0c-0.1,0.7,0.2,1.4,0.7,1.9c0.6,0.4,1.3,0.7,2,0.6
			c1.4,0.1,2.6-1,2.7-2.4c0-0.1,0-0.2,0-0.3V15H9V21z M22.8,14.9c-0.9,0-1.8,0.3-2.5,1c-0.7,0.7-1,1.6-1,2.6V20c0,1,0.3,1.9,1,2.6
			c0.6,0.7,1.6,1,2.5,1c1,0,1.9-0.3,2.5-1c0.7-0.7,1-1.6,1-2.6v-1.5c0-1-0.3-1.9-1-2.6C24.6,15.2,23.7,14.8,22.8,14.9L22.8,14.9z
			 M24.8,20c0,0.6-0.2,1.3-0.6,1.8c-0.4,0.5-0.9,0.7-1.5,0.7c-0.6,0-1.1-0.2-1.5-0.7c-0.4-0.5-0.6-1.1-0.5-1.8v-1.5
			c0-0.6,0.2-1.2,0.5-1.8c0.4-0.5,0.9-0.7,1.5-0.7c0.6,0,1.2,0.2,1.5,0.7c0.4,0.5,0.6,1.1,0.6,1.8L24.8,20L24.8,20z"/>
	</g>
</g>
</svg>
