<?xml version="1.0" encoding="utf-8"?>
<!-- Generator: Adobe Illustrator 24.0.2, SVG Export Plug-In . SVG Version: 6.00 Build 0)  -->
<svg version="1.1" id="Layer_1" xmlns="http://www.w3.org/2000/svg" xmlns:xlink="http://www.w3.org/1999/xlink" x="0px" y="0px"
	 viewBox="0 0 185.9 179.9" style="enable-background:new 0 0 185.9 179.9;" xml:space="preserve">
<style type="text/css">
	.st0{fill:#47546A;}
</style>
<title>icon_No_detection_history</title>
<g id="Layer_2_1_">
	<g id="Layer_1-2">
		<path id="패스_1533" class="st0" d="M120.4,68.8h52.1v-3.9h-52.1V68.8z M120.4,85.4h52.1v-3.9h-52.1V85.4z M120.4,112.8h52.1
			v-3.9h-52.1V112.8z M120.4,96.1h52.1v-3.9h-52.1V96.1z M95,97.5h17.3V80.2H95V97.5z M98.3,83.5h10.8v10.7H98.3L98.3,83.5z
			 M95,70.1h17.3V52.8H95V70.1z M98.3,56.1h10.8v10.7H98.3L98.3,56.1z M185.9,138.1v-100H80.3v52.5H58.1V160H50v16.4
			c0,1.9,1.6,3.5,3.5,3.5c0,0,0,0,0,0h125.4c1.9,0,3.5-1.6,3.5-3.5c0,0,0,0,0,0V160h-8v-21.9L185.9,138.1z M62,94.6h18.3v43.6H103v8
			l8-8h59.4V160H62V94.6z M178.4,164v12H54v-12H178.4z M84.2,134.2V42.1H182v92.1L84.2,134.2z M120.4,123.5h52.1v-3.9h-52.1V123.5z
			 M120.4,58.1h52.1v-3.9h-52.1V58.1z M95,124.8h17.3v-17.3H95V124.8z M98.3,110.8H109v10.7H98.3L98.3,110.8z M79.8,25.3L79.8,25.3
			c-1.8-0.5-3.6-1-5.4-1.4l-0.6,2.7c1.7,0.4,3.5,0.8,5.2,1.3L79.8,25.3z M3.1,77.4l-2.8-0.3c-0.1,0.7-0.1,1.3-0.2,2l0,0l0,0l0,0v0.4
			l0,0v0.2l0,0v0.1l0,0v0.1l0,0v0.1l0,0v0.2l0,0v0.2l0,0v0.1l0,0v0.1l0,0v0.2l0,0V81l0,0v0.1l0,0v0.1l0,0l0,0l0,0
			c0,0.5,0,0.9-0.1,1.4l2.8,0.1C2.8,80.9,2.9,79.2,3.1,77.4L3.1,77.4z M90.2,29.5c-0.4-0.2-0.7-0.4-1.1-0.6H89l0,0l0,0l-0.1-0.1
			h-0.5h-0.1h-0.2L88,28.5h-0.1l-0.2-0.1h-0.1l-0.2-0.1h-0.1l-0.1,0h-0.5h-0.1h-0.1l-1.2-0.5L84.2,30c1.7,0.7,3.3,1.4,4.9,2.2
			L90.2,29.5z M10.9,119.7l0.3,0.4l0,0l0,0l0,0l0,0h0.1l0,0h0.1l0,0l0,0l0,0l0,0l0,0l0,0c0.9,1.2,1.8,2.4,2.8,3.6l2.1-1.8
			c-1.1-1.4-2.2-2.8-3.2-4.2L10.9,119.7z M26.8,135.4c0.9,0.6,1.9,1.3,2.9,1.9h0.1h0.1h0.3l0.1,0.1l0,0l0,0l0,0l1.2,0.7l1.4-2.4
			c-1.5-0.9-3.1-1.8-4.5-2.8L26.8,135.4z M37.7,138.3l-1.2,2.6l0.8,0.3h0.2h0.1l0,0l0.8,0.3h0.2l0,0l0,0h0.1l0,0l0.8,0.3l0,0h0.1
			l0,0h0.1l0,0h0.1H40l0,0h0.1h0.1h0.1h0.1l0,0l1.2,0.4l0.9-2.6c-1-0.4-2.1-0.8-3.1-1.2c-0.6-0.2-1.2-0.4-1.8-0.7L37.7,138.3z
			 M18.1,128.2c0.5,0.5,1,0.9,1.5,1.4l0,0l0,0h0.1l0.1,0.1h0.1l0,0l0,0l0,0l0,0l0,0l0,0c0.7,0.7,1.5,1.3,2.3,2l1.9-1.9
			c-1.4-1.1-2.7-2.3-4-3.6L18.1,128.2z M5.4,109.9c0.3,0.7,0.6,1.3,0.9,1.9l0,0l0,0l0,0l0,0l0,0l0,0l0,0l0,0l0,0l0,0l0,0l0,0l0,0
			l0,0l0,0l0,0l0,0l0,0l0,0l0,0l0,0c0.5,0.9,0.9,1.8,1.4,2.6l2.4-1.4c-0.9-1.6-1.7-3.2-2.4-4.8L5.4,109.9z M2.8,88.1L0,88.3v0.4l0,0
			v0.1l0,0V89l0,0v0.1l0,0v0.2l0,0v0.3l0,0l0,0l0,0l0,0l0,0l0,0l0,0v0.2l0,0l0,0l0,0c0,0.1,0,0.1,0,0.2l0,0c0.1,1.3,0.3,2.6,0.5,3.9
			l2.8-0.4C3.1,91.7,2.9,89.9,2.8,88.1z M4.4,98.7l-2.7,0.7l0,0l0,0l0,0v0.1l0,0l0,0l0,0l0,0l0,0l0,0l0,0l0,0l0,0l0,0l0,0
			c0.4,1.7,1,3.4,1.5,5.1l2.7-0.9c-0.5-1.7-1.1-3.4-1.5-5.1L4.4,98.7z M59.3,61h-2.9V47.8c0-0.3,0-0.6-0.1-0.9
			c-0.6-7-7.7-12.4-13.8-14.9c5.8-2.4,12.6-7.5,13.7-14c0.1-0.6,0.2-1.2,0.2-1.9V2.9h2.9V0H15.5v2.9h2.9v13.2c0,0.6,0.1,1.3,0.2,1.9
			c1.1,6.5,7.9,11.6,13.7,14c-6.1,2.5-13.3,8-13.8,15c0,0.3-0.1,0.6-0.1,0.8V61h-2.9v2.9h43.8V61z M21.3,3h32.2v12.1H21.3L21.3,3z
			 M21.6,18h31.6c-1.5,6.5-10.7,11.7-15.8,12.5C32.2,29.7,23.1,24.5,21.6,18z M37.4,33.4c5.2,0.8,14.5,6.1,15.9,12.7l-15.4-3.9
			l-16.4,4C22.8,39.6,32.2,34.2,37.4,33.4z M53.5,61H21.3V49.3l16.5-4l15.6,4L53.5,61z"/>
	</g>
</g>
</svg>
