<?xml version="1.0" encoding="utf-8"?>
<!-- Generator: Adobe Illustrator 24.0.2, SVG Export Plug-In . SVG Version: 6.00 Build 0)  -->
<svg version="1.1" id="Layer_1" xmlns="http://www.w3.org/2000/svg" xmlns:xlink="http://www.w3.org/1999/xlink" x="0px" y="0px"
	 viewBox="0 0 40 40" style="enable-background:new 0 0 40 40;" xml:space="preserve">
<style type="text/css">
	.st0{fill:#D8DADC;}
</style>
<title>icon_FreeForm</title>
<g id="Layer_2_1_">
	<g id="Layer_1-2">
		<path id="icon_FreeForm" class="st0" d="M20,0C9,0,0,9,0,20s9,20,20,20s20-9,20-20S31,0,20,0z M20,39C9.5,39,1,30.5,1,20
			S9.5,1,20,1s19,8.5,19,19S30.5,39,20,39z M29.8,12.5c0-1.3-1.1-2.4-2.4-2.4c-1.3,0-2.4,1.1-2.4,2.4c0,0,0,0,0,0c0,0.1,0,0.2,0,0.2
			l-3.6,3.9c-0.9-0.7-2.1-0.7-2.9,0l-3.8-4.1l0,0c0-1.3-1.1-2.4-2.4-2.4c-1.3,0-2.4,1.1-2.4,2.4c0,1,0.6,1.8,1.5,2.2v10.6
			c-1.2,0.5-1.9,1.8-1.4,3.1c0.5,1.2,1.8,1.9,3.1,1.4c0.6-0.2,1.1-0.7,1.3-1.3h10.8c0.6,1.2,2,1.7,3.2,1.2c1.2-0.6,1.7-2,1.2-3.2
			c-0.2-0.5-0.6-0.9-1-1.1V14.6C29.3,14.2,29.8,13.4,29.8,12.5z M20,17.1c0.8,0,1.4,0.6,1.4,1.4s-0.6,1.4-1.4,1.4s-1.4-0.6-1.4-1.4
			v0l0,0C18.6,17.7,19.2,17.1,20,17.1z M11,12.5c0-0.8,0.6-1.4,1.4-1.4s1.4,0.6,1.4,1.4s-0.6,1.4-1.4,1.4S11,13.3,11,12.5L11,12.5z
			 M12.4,28.9c-0.8,0-1.4-0.6-1.4-1.4c0-0.8,0.6-1.4,1.4-1.4c0.8,0,1.4,0.6,1.4,1.4l0,0l0,0C13.8,28.3,13.2,28.9,12.4,28.9z
			 M25,27.5H14.8c0-1.3-1-2.3-2.3-2.4V14.9c0.8,0,1.5-0.5,1.9-1.2l3.4,3.8c-0.6,1.2-0.1,2.6,1.1,3.2c1.2,0.6,2.6,0.1,3.2-1.1
			c0.2-0.3,0.2-0.7,0.2-1c0-0.4-0.1-0.7-0.3-1.1l3.3-3.6c0.4,0.7,1.2,1.1,2,1.1h0.1v10.3h-0.1C26.1,25.1,25,26.2,25,27.5
			C25,27.5,25,27.5,25,27.5z M28.8,27.5c0,0.8-0.6,1.4-1.4,1.4S26,28.3,26,27.5s0.6-1.4,1.4-1.4h0l0,0
			C28.1,26.1,28.8,26.7,28.8,27.5C28.8,27.5,28.8,27.5,28.8,27.5L28.8,27.5z M27.4,13.9c-0.8,0-1.4-0.6-1.4-1.4s0.6-1.4,1.4-1.4
			c0.8,0,1.4,0.6,1.4,1.4v0l0,0C28.8,13.3,28.2,13.9,27.4,13.9z"/>
	</g>
</g>
</svg>
