<?xml version="1.0" encoding="utf-8"?>
<!-- Generator: Adobe Illustrator 24.0.2, SVG Export Plug-In . SVG Version: 6.00 Build 0)  -->
<svg version="1.1" id="Layer_1" xmlns="http://www.w3.org/2000/svg" xmlns:xlink="http://www.w3.org/1999/xlink" x="0px" y="0px"
	 viewBox="0 0 19 20" style="enable-background:new 0 0 19 20;" xml:space="preserve">
<style type="text/css">
	.st0{fill:#6899EB;}
</style>
<title>icon_Profile_1</title>
<g id="Layer_2_1_">
	<g id="Layer_1-2">
		<path class="st0" d="M9,9.3c0.2,0,0.3,0,0.5,0s0.4,0,0.5,0c2.3-0.2,4-2.1,4.2-4.3c0-0.1,0-0.2,0-0.3c0-0.1,0-0.1,0-0.2
			C14.1,2,12,0,9.5,0H9.3C6.8,0.1,4.8,2.2,4.8,4.7v0.1C4.8,7.1,6.6,9.1,9,9.3z M5.8,4.7c0-2,1.6-3.6,3.5-3.7h0.2
			c2,0,3.6,1.5,3.7,3.5c0,0.1,0,0.1,0,0.2l0,0c0,0.1,0,0.1,0,0.2c-0.1,1.8-1.5,3.3-3.3,3.5c-0.1,0-0.2,0-0.4,0H9.2l0,0
			C7.3,8.2,5.8,6.6,5.8,4.7L5.8,4.7z M12.6,10.2H6.4c-3.1,0-5.8,2.2-6.4,5.2c4.2,5.2,11.9,6.1,17.1,1.9c0.7-0.6,1.3-1.2,1.9-1.9
			C18.4,12.4,15.7,10.2,12.6,10.2z M9.1,19c-3.1-0.1-6-1.5-8-3.8c0.6-2.4,2.8-4,5.3-4h6.2c2.5,0,4.6,1.6,5.3,4
			C15.7,17.7,12.5,19.1,9.1,19z"/>
	</g>
</g>
</svg>
