<?xml version="1.0" encoding="utf-8"?>
<!-- Generator: Adobe Illustrator 24.0.2, SVG Export Plug-In . SVG Version: 6.00 Build 0)  -->
<svg version="1.1" id="Layer_1" xmlns="http://www.w3.org/2000/svg" xmlns:xlink="http://www.w3.org/1999/xlink" x="0px" y="0px"
	 viewBox="0 0 13 13" style="enable-background:new 0 0 13 13;" xml:space="preserve">
<style type="text/css">
	.st0{fill:#6899EB;}
</style>
<title>icon_confirm</title>
<g id="Layer_2_1_">
	<g id="Layer_1-2">
		<g id="그룹_3514">
			<path id="패스_1535" class="st0" d="M6.5,0C2.9,0,0,2.9,0,6.5S2.9,13,6.5,13S13,10.1,13,6.5S10.1,0,6.5,0z M10,4.4L5.3,9.3
				c0,0-2.2-2.1-2.3-2.2C2.9,7,2.8,6.6,3,6.4c0.2-0.2,0.7-0.3,0.9-0.1l1.4,1.4l3.9-4.1c0.1-0.1,0.5-0.3,0.8,0
				C10.3,3.9,10.1,4.3,10,4.4z"/>
		</g>
	</g>
</g>
</svg>
