<?xml version="1.0" encoding="utf-8"?>
<!-- Generator: Adobe Illustrator 24.0.2, SVG Export Plug-In . SVG Version: 6.00 Build 0)  -->
<svg version="1.1" id="Layer_1" xmlns="http://www.w3.org/2000/svg" xmlns:xlink="http://www.w3.org/1999/xlink" x="0px" y="0px"
	 viewBox="0 0 17 17.5" style="enable-background:new 0 0 17 17.5;" xml:space="preserve">
<style type="text/css">
	.st0{fill:#47546A;}
</style>
<title>icon_bin</title>
<g id="Layer_2_1_">
	<g id="Layer_1-2">
		<g id="icon_bin">
			<path id="패스_1504" class="st0" d="M15.5,2.7H12V0.5C12,0.2,11.8,0,11.5,0h-6C5.2,0,5,0.2,5,0.5v2.2H0v1h1.6L2.7,17
				c0,0.3,0.2,0.4,0.5,0.5h10.5c0.3,0,0.5-0.2,0.5-0.5l1.2-13.3H17v-1L15.5,2.7z M6,1h5v1.7H6V1z M13.3,16.5H3.7L2.6,3.7h11.8
				L13.3,16.5z M6.5,14.2L6.2,6.1h-1l0.3,8.1H6.5z M9,6.1H8v8.1h1V6.1z M11.8,6.1h-1l-0.3,8.1h1L11.8,6.1z"/>
		</g>
	</g>
</g>
</svg>
