<?xml version="1.0" encoding="utf-8"?>
<!-- Generator: Adobe Illustrator 24.0.2, SVG Export Plug-In . SVG Version: 6.00 Build 0)  -->
<svg version="1.1" id="Layer_1" xmlns="http://www.w3.org/2000/svg" xmlns:xlink="http://www.w3.org/1999/xlink" x="0px" y="0px"
	 viewBox="0 0 17.4 18" style="enable-background:new 0 0 17.4 18;" xml:space="preserve">
<style type="text/css">
	.st0{fill:#47546A;}
</style>
<title>icon_Setting</title>
<g id="Layer_2_1_">
	<g id="Layer_1-2">
		<g id="icon_Setting">
			<path id="패스_1307" class="st0" d="M15.4,10c0-0.3,0.1-0.7,0.1-1s0-0.6-0.1-0.9l1.9-1.5c0.1-0.1,0.2-0.3,0.1-0.5L15.7,3
				c-0.1-0.1-0.2-0.2-0.3-0.2h-0.1L13,3.7c-0.5-0.4-1.1-0.7-1.6-1L11,0.3C11,0.1,10.8,0,10.6,0H7C6.8,0.1,6.7,0.2,6.6,0.4L6.2,2.8
				c-0.6,0.3-1.1,0.6-1.6,1L2.2,2.9H2.1C2,2.9,1.9,3,1.8,3.1l-1.7,3C0,6.3,0,6.5,0.1,6.6L2,8.1c-0.1,0.7-0.1,1.4,0,2l-1.9,1.5
				c-0.1,0-0.1,0.2,0,0.4l1.7,3c0.1,0.1,0.2,0.2,0.3,0.2h0.1l2.3-0.9C5,14.7,5.6,15,6.1,15.2l0.4,2.4C6.7,17.9,6.8,18,7,18h3.4
				c0.2,0,0.3-0.1,0.4-0.3l0.4-2.4c0.6-0.2,1.1-0.6,1.6-0.9l2.3,0.9h0.1c0.1,0,0.3-0.1,0.3-0.2l1.7-3c0.1-0.2,0.1-0.4-0.1-0.5
				L15.4,10z M15,14.1l-1.8-0.8l-0.5-0.2l-0.4,0.3c-0.4,0.3-0.9,0.6-1.4,0.8l-0.6,0.2L10.2,15l-0.3,2H7.5l-0.4-2.5l-0.5-0.2
				c-0.5-0.2-1-0.5-1.4-0.8l-0.4-0.3L2.4,14l-1.2-2l1.9-1.6c0,0-0.2-1.1-0.2-1.4s0.2-1.4,0.2-1.4L1.2,6l1.2-2l2.3,0.9l0.4-0.4
				C5.6,4.1,6,3.9,6.6,3.7l0.5-0.2L7.2,3l0.3-2h2.6l0.2,1.9v0.5l0.5,0.2c0.5,0.2,1,0.5,1.6,0.8l0.4,0.3l0.4-0.1L15,4l1.3,2.2
				l-1.6,1.2l-0.4,0.3c0,0,0.2,1.1,0.2,1.4c0,0.5-0.2,1.4-0.2,1.4l0.4,0.4l1.4,1.3L15,14.1z M8.7,5.2C6.6,5.2,5,6.9,5,9
				s1.7,3.8,3.8,3.8s3.8-1.7,3.8-3.8S10.8,5.2,8.7,5.2z M8.7,11.7C7.2,11.7,6,10.5,6,9s1.2-2.8,2.8-2.8s2.8,1.2,2.8,2.8
				S10.2,11.7,8.7,11.7z"/>
		</g>
	</g>
</g>
</svg>
