<?xml version="1.0" encoding="utf-8"?>
<!-- Generator: Adobe Illustrator 24.0.2, SVG Export Plug-In . SVG Version: 6.00 Build 0)  -->
<svg version="1.1" id="Layer_1" xmlns="http://www.w3.org/2000/svg" xmlns:xlink="http://www.w3.org/1999/xlink" x="0px" y="0px"
	 viewBox="0 0 11.7 10" style="enable-background:new 0 0 11.7 10;" xml:space="preserve">
<style type="text/css">
	.st0{fill:#47546A;}
</style>
<title>icon_map</title>
<g id="Layer_2_1_">
	<g id="Layer_1-2">
		<g id="icon_map">
			<path id="패스_1505" class="st0" d="M8.3,0.1L7.8,0L7.3,0.1L4.4,0.5L3.9,0.6L3.4,0.5L0,0v9.4l3.4,0.5L3.9,10l0.5-0.1l2.9-0.4
				l0.5-0.1l0.5,0.1l3.4,0.5V0.6L8.3,0.1z M1,8.5V1.2l2.4,0.4V9L1,8.5z M4.4,8.9V1.5l2.9-0.4v7.4L4.4,8.9z M10.8,8.8L8.3,8.5V1.1
				l2.4,0.4L10.8,8.8L10.8,8.8z"/>
		</g>
	</g>
</g>
</svg>
