<?xml version="1.0" encoding="utf-8"?>
<!-- Generator: Adobe Illustrator 24.0.2, SVG Export Plug-In . SVG Version: 6.00 Build 0)  -->
<svg version="1.1" id="Layer_1" xmlns="http://www.w3.org/2000/svg" xmlns:xlink="http://www.w3.org/1999/xlink" x="0px" y="0px"
	 viewBox="0 0 26 26" style="enable-background:new 0 0 26 26;" xml:space="preserve">
<style type="text/css">
	.st0{fill:#FFFFFF;}
</style>
<title>icon_AOI_2</title>
<g id="Layer_2_1_">
	<g id="Layer_1-2">
		<path class="st0" d="M6.3,12.2l-1.6,9h16.5l-1.6-9h-3.1C17.4,11,18,9.5,18.2,8l0,0c0-2.9-2.4-5.2-5.2-5.2S7.8,5.1,7.8,8l0,0
			c0.2,1.5,0.8,2.9,1.7,4.1L6.3,12.2z M18.8,13.2l1.2,7H5.9l1.2-7h3c0.9,1.3,1.8,2.5,2.8,3.7c1-1.2,2-2.4,2.9-3.7
			C15.8,13.2,18.8,13.2,18.8,13.2z M8.8,8c0-1.1,0.4-2.2,1.2-3c1.7-1.7,4.4-1.6,6,0c0.8,0.8,1.2,1.9,1.2,3c0,1-0.8,2.5-1.9,4.1
			c-0.2,0.3-0.4,0.7-0.7,1c-0.5,0.8-1.1,1.5-1.6,2.1c-0.5-0.6-1.1-1.4-1.6-2.1l-0.7-1C9.6,10.6,8.8,9,8.8,8z M14.5,9.4
			c0.8-0.8,0.8-2.2,0-3s-2.2-0.8-3,0s-0.8,2.2,0,3l0,0C12.3,10.2,13.6,10.2,14.5,9.4L14.5,9.4z M12.2,7.1c0.4-0.4,1.2-0.4,1.6,0
			c0.4,0.4,0.4,1.2,0,1.6s-1.2,0.4-1.6,0C11.7,8.3,11.7,7.6,12.2,7.1L12.2,7.1z M18.9,0v1H25v6.1h1V0H18.9z M25,25h-6.1v1H26v-7.1
			h-1V25z M1,1h6.1V0H0v7.1h1V1z M1,18.9H0V26h7.1v-1H1V18.9z"/>
	</g>
</g>
</svg>
