<?xml version="1.0" encoding="utf-8"?>
<!-- Generator: Adobe Illustrator 24.0.2, SVG Export Plug-In . SVG Version: 6.00 Build 0)  -->
<svg version="1.1" id="Layer_1" xmlns="http://www.w3.org/2000/svg" xmlns:xlink="http://www.w3.org/1999/xlink" x="0px" y="0px"
	 viewBox="0 0 40 40" style="enable-background:new 0 0 40 40;" xml:space="preserve">
<style type="text/css">
	.st0{fill:#6899EB;}
</style>
<title>icon_Circle</title>
<g id="Layer_2_1_">
	<g id="Layer_1-2">
		<path id="icon_Circle" class="st0" d="M20,0C9,0,0,9,0,20s9,20,20,20s20-9,20-20S31,0,20,0z M20,39C9.5,39,1,30.5,1,20S9.5,1,20,1
			s19,8.5,19,19S30.5,39,20,39z M20,13c-3.9,0-7,3.1-7,7s3.1,7,7,7s7-3.1,7-7S23.9,13,20,13z M20,26c-3.3,0-6-2.7-6-6s2.7-6,6-6
			s6,2.7,6,6S23.3,26,20,26z M10.5,13.5h-1v3h1V13.5z M10.5,18.5h-1v3h1V18.5z M10.5,23.5h-1v3h1V23.5z M10.5,28.5h-1V30
			c0,0.3,0.2,0.5,0.5,0.5h1.5v-1h-1V28.5z M9.5,10v1.5h1v-1h1v-1H10C9.7,9.5,9.5,9.7,9.5,10z M26.5,9.5h-3v1h3V9.5z M21.5,9.5h-3v1
			h3V9.5z M16.5,9.5h-3v1h3V9.5z M18.5,30.5h3v-1h-3V30.5z M13.5,30.5h3v-1h-3V30.5z M29.5,26.5h1v-3h-1V26.5z M29.5,16.5h1v-3h-1
			V16.5z M29.5,29.5h-1v1H30c0.3,0,0.5-0.2,0.5-0.5v-1.5h-1V29.5z M29.5,21.5h1v-3h-1V21.5z M23.5,30.5h3v-1h-3V30.5z M30,9.5h-1.5
			v1h1v1h1V10C30.5,9.7,30.3,9.5,30,9.5z"/>
	</g>
</g>
</svg>
