<?xml version="1.0" encoding="utf-8"?>
<!-- Generator: Adobe Illustrator 24.0.2, SVG Export Plug-In . SVG Version: 6.00 Build 0)  -->
<svg version="1.1" id="Layer_1" xmlns="http://www.w3.org/2000/svg" xmlns:xlink="http://www.w3.org/1999/xlink" x="0px" y="0px"
	 viewBox="0 0 25.8 25" style="enable-background:new 0 0 25.8 25;" xml:space="preserve">
<style type="text/css">
	.st0{fill:#FFFFFF;}
</style>
<title>icon_Time_lapse</title>
<g id="Layer_2_1_">
	<g id="Layer_1-2">
		<g id="Time_lapse">
			<g id="Time_lapse-2">
				<path id="패스_1514" class="st0" d="M12.8,4.7V13h5.7v-1h-4.7V4.7H12.8z M22.2,3.7c-4.9-4.9-12.8-4.9-17.7,0
					C2.1,6,0.8,9.2,0.8,12.5l0,0c0,2.5,0.7,5,2.2,7.1l-3,3h7.1v-7.1l-2.7,2.7c-1.1-1.7-1.6-3.6-1.6-5.6C2.8,6.7,7.5,2,13.3,2
					s10.5,4.7,10.5,10.5S19.1,23,13.3,23v2c6.9,0,12.5-5.6,12.5-12.5l0,0C25.8,9.2,24.5,6,22.2,3.7z"/>
			</g>
		</g>
	</g>
</g>
</svg>
