<svg xmlns="http://www.w3.org/2000/svg" viewBox="0 0 14.49 17.99"><defs><style>.cls-1{fill:#fff;}</style></defs><g id="Layer_2" data-name="Layer 2"><g id="_Layer_" data-name="&lt;Layer&gt;"><path id="패스_2477" data-name="패스 2477" class="cls-1" d="M12.33,5.11h0A5.09,5.09,0,0,0,7.24,0h0A5.1,5.1,0,0,0,2.16,5.11h0c0,2.83,5.09,8.64,5.09,8.64S12.33,7.93,12.33,5.11Zm-8-2.92A4.09,4.09,0,0,1,7.24,1h0a4.12,4.12,0,0,1,4.12,4.13c0,1.56-2.29,4.89-4.12,7.12C5.41,10,3.12,6.67,3.12,5.11A4.12,4.12,0,0,1,4.32,2.19ZM13.11,11H11.36S8.21,15.28,7.9,15.64a.87.87,0,0,1-1.23.08l-.08-.08C6.27,15.28,3.12,11,3.12,11H1.38L0,18H14.49ZM9.26,5A2,2,0,1,0,7.24,7a2,2,0,0,0,2-2Z"/></g></g></svg>