<?xml version="1.0" encoding="utf-8"?>
<!-- Generator: Adobe Illustrator 24.0.2, SVG Export Plug-In . SVG Version: 6.00 Build 0)  -->
<svg version="1.1" id="Layer_1" xmlns="http://www.w3.org/2000/svg" xmlns:xlink="http://www.w3.org/1999/xlink" x="0px" y="0px"
	 viewBox="0 0 40 40" style="enable-background:new 0 0 40 40;" xml:space="preserve">
<style type="text/css">
	.st0{fill:#47546A;}
</style>
<title>icon_XML</title>
<g id="Layer_2_1_">
	<g id="Layer_1-2">
		<path id="icon_XML" class="st0" d="M20,0C9,0,0,9,0,20s9,20,20,20s20-9,20-20S31,0,20,0z M20,39C9.5,39,1,30.5,1,20S9.5,1,20,1
			s19,8.5,19,19S30.5,39,20,39z M15,15h-1.7l-1.8,3.1L9.7,15H8l2.6,4.2L8,23.5h1.6l1.9-3.2l1.9,3.2h1.7l-2.7-4.3L15,15z M20.6,21.6
			L20.6,21.6L18,15h-1.8v8.5h1.4v-6.3l0,0l2.4,6.2h1l2.4-6.1l0,0v6.1h1.4V15H23L20.6,21.6z M28,15h-1.4v8.5H32v-1.2h-4V15z"/>
	</g>
</g>
</svg>
