<?xml version="1.0" encoding="utf-8"?>
<!-- Generator: Adobe Illustrator 24.0.2, SVG Export Plug-In . SVG Version: 6.00 Build 0)  -->
<svg version="1.1" id="Layer_1" xmlns="http://www.w3.org/2000/svg" xmlns:xlink="http://www.w3.org/1999/xlink" x="0px" y="0px"
	 viewBox="0 0 12 12" style="enable-background:new 0 0 12 12;" xml:space="preserve">
<style type="text/css">
	.st0{fill:#72829D;}
</style>
<title>icon_Circle_arrow</title>
<g id="Layer_2_1_">
	<g id="Layer_1-2">
		<path id="Icon_ionic-ios-arrow-dropright-circle" class="st0" d="M0,6c0,3.3,2.7,6,6,6s6-2.7,6-6S9.3,0,6,0S0,2.7,0,6z M7.1,6
			L4.7,3.7C4.5,3.4,4.5,3.1,4.7,2.9c0.2-0.2,0.5-0.2,0.7,0l2.7,2.8c0.2,0.2,0.2,0.6,0,0.8L5.5,9.1C5.3,9.3,5,9.3,4.8,9.1
			c-0.2-0.2-0.2-0.6,0-0.8L7.1,6z"/>
	</g>
</g>
</svg>
