<?xml version="1.0" encoding="utf-8"?>
<!-- Generator: Adobe Illustrator 24.0.2, SVG Export Plug-In . SVG Version: 6.00 Build 0)  -->
<svg version="1.1" id="Layer_1" xmlns="http://www.w3.org/2000/svg" xmlns:xlink="http://www.w3.org/1999/xlink" x="0px" y="0px"
	 viewBox="0 0 15 20" style="enable-background:new 0 0 15 20;" xml:space="preserve">
<style type="text/css">
	.st0{fill:#6899EB;}
</style>
<title>icon_marker</title>
<g id="Layer_2_1_">
	<g id="Layer_1-2">
		<g id="icon_marker">
			<path id="패스_1306" class="st0" d="M7.5,0L7.5,0C3.4,0,0,3.3,0,7.4c0,0,0,0,0,0l0,0C0,11.5,7.5,20,7.5,20S15,11.5,15,7.4l0,0
				C15,3.3,11.6,0,7.5,0C7.5,0,7.5,0,7.5,0z M7.5,18.5C5.2,15.7,1,10.2,1,7.4c0-1.7,0.7-3.3,1.9-4.6C4.1,1.7,5.8,1,7.5,1l0,0
				C11.1,1,14,3.9,14,7.4C14,10.2,9.8,15.7,7.5,18.5z M7.5,4.2c-1.7,0-3,1.4-2.9,3.1c0,1.7,1.4,3,3.1,2.9c1.6,0,2.9-1.4,2.9-3
				C10.6,5.6,9.2,4.2,7.5,4.2C7.5,4.2,7.5,4.2,7.5,4.2z M7.5,9.3c-1.1,0-2-1-1.9-2.1c0-1.1,1-2,2.1-1.9c1.1,0,1.9,0.9,1.9,2
				C9.6,8.4,8.7,9.3,7.5,9.3C7.5,9.3,7.5,9.3,7.5,9.3z"/>
		</g>
	</g>
</g>
</svg>
