<?xml version="1.0" encoding="utf-8"?>
<!-- Generator: Adobe Illustrator 24.0.2, SVG Export Plug-In . SVG Version: 6.00 Build 0)  -->
<svg version="1.1" id="Layer_1" xmlns="http://www.w3.org/2000/svg" xmlns:xlink="http://www.w3.org/1999/xlink" x="0px" y="0px"
	 viewBox="0 0 19.6 15" style="enable-background:new 0 0 19.6 15;" xml:space="preserve">
<style type="text/css">
	.st0{fill:#D8DADC;}
</style>
<title>icon_folder_on</title>
<path class="st0" d="M19.1,5.5h-2.2v-3c0-0.3-0.2-0.5-0.5-0.5l0,0H9.4L8.6,0.3C8.5,0.1,8.4,0,8.2,0H0.5C0.2,0,0,0.2,0,0.5
	c0,0,0,13.7,0,14S0.3,15,0.5,15h15.9c0.2,0,0.5-0.2,0.6-0.5c0.1-0.3,2.6-8.1,2.6-8.1c0-0.1,0-0.3,0-0.3C19.6,5.7,19.3,5.5,19.1,5.5z
	 M1,1h6.8l1,2h7.2v2.5H3.2C3,5.5,2.8,5.7,2.7,5.9L1,11.3V1z M16.9,11.1L16,14H1.2l2.4-7.5h14.8L16.9,11.1z"/>
</svg>
