<?xml version="1.0" encoding="utf-8"?>
<!-- Generator: Adobe Illustrator 24.0.2, SVG Export Plug-In . SVG Version: 6.00 Build 0)  -->
<svg version="1.1" id="Layer_1" xmlns="http://www.w3.org/2000/svg" xmlns:xlink="http://www.w3.org/1999/xlink" x="0px" y="0px"
	 viewBox="0 0 18 18" style="enable-background:new 0 0 18 18;" xml:space="preserve">
<style type="text/css">
	.st0{fill:#6899EB;}
</style>
<title>mini_icon_GeoJSON</title>
<g id="Layer_2_1_">
	<g id="Layer_1-2">
		<g id="그룹_3134">
			<path id="패스_1529" class="st0" d="M9,0C4,0,0,4,0,9s4,9,9,9s9-4,9-9l0,0C18,4,14,0,9,0z M9,16.9c-4.4,0-7.9-3.6-7.9-7.9
				S4.6,1.1,9,1.1s7.9,3.6,7.9,7.9S13.4,16.9,9,16.9L9,16.9z M13,9c-0.4-0.2-0.8-0.4-1.2-0.5c-0.4-0.1-0.7-0.3-1.1-0.5
				c-0.2-0.1-0.3-0.4-0.3-0.6c0-0.3,0.1-0.5,0.3-0.7c0.2-0.2,0.5-0.3,0.8-0.2c0.3,0,0.6,0.1,0.9,0.3c0.2,0.2,0.3,0.5,0.3,0.8h1.1
				c0-0.4-0.1-0.7-0.3-1c-0.2-0.3-0.5-0.6-0.8-0.7c-0.4-0.2-0.8-0.3-1.2-0.2c-0.6,0-1.2,0.2-1.6,0.5C9.5,6.5,9.3,7,9.3,7.5
				c0,0.6,0.3,1.1,0.9,1.4c0.4,0.2,0.8,0.4,1.2,0.5c0.4,0.1,0.7,0.2,1.1,0.5c0.2,0.2,0.3,0.4,0.3,0.6c0,0.2-0.1,0.5-0.3,0.6
				c-0.3,0.2-0.6,0.3-0.9,0.2c-0.4,0-0.7-0.1-1-0.3c-0.2-0.2-0.4-0.5-0.4-0.8H9.1c0,0.4,0.1,0.7,0.3,1.1c0.2,0.3,0.5,0.6,0.9,0.7
				c0.4,0.2,0.8,0.3,1.3,0.3c0.6,0,1.2-0.1,1.7-0.5c0.4-0.3,0.6-0.8,0.6-1.3c0-0.3-0.1-0.6-0.2-0.9C13.5,9.4,13.3,9.2,13,9z
				 M7.1,10.3c0,0.3-0.1,0.6-0.3,0.8c-0.2,0.2-0.4,0.3-0.7,0.3c-0.3,0-0.5-0.1-0.7-0.2c-0.2-0.2-0.3-0.5-0.2-0.8H4
				c0,0.5,0.2,1,0.6,1.4c0.4,0.4,1,0.5,1.6,0.5c0.6,0,1.1-0.2,1.5-0.5c0.4-0.4,0.6-0.9,0.6-1.5V5.8H7.1V10.3z"/>
		</g>
	</g>
</g>
</svg>
