<?xml version="1.0" encoding="utf-8"?>
<!-- Generator: Adobe Illustrator 24.0.2, SVG Export Plug-In . SVG Version: 6.00 Build 0)  -->
<svg version="1.1" id="Layer_1" xmlns="http://www.w3.org/2000/svg" xmlns:xlink="http://www.w3.org/1999/xlink" x="0px" y="0px"
	 viewBox="0 0 18 18" style="enable-background:new 0 0 18 18;" xml:space="preserve">
<style type="text/css">
	.st0{fill:#47546A;}
</style>
<title>mini_icon_XML</title>
<g id="Layer_2_1_">
	<g id="Layer_1-2">
		<g id="그룹_3136">
			<path id="패스_1530" class="st0" d="M9,0C4,0,0,4,0,9s4,9,9,9s9-4,9-9l0,0C18,4,14,0,9,0z M9,16.9c-4.4,0-7.9-3.6-7.9-7.9
				S4.6,1.1,9,1.1s7.9,3.6,7.9,7.9l0,0C16.9,13.4,13.4,16.9,9,16.9z M7.8,6.2H6.7L5.5,8.2L4.3,6.2H3.2L4.9,9l-1.8,2.8h1.2l1.2-2.1
				l1.2,2.1h1.2L6.1,9L7.8,6.2z M11.5,10.5L9.9,6.2H8.6v5.7h1V10L9.5,7.5l1.7,4.4h0.7l1.7-4.4L13.5,10v1.9h1V6.2h-1.3L11.5,10.5z"/>
		</g>
	</g>
</g>
</svg>
