<?xml version="1.0" encoding="utf-8"?>
<!-- Generator: Adobe Illustrator 24.0.2, SVG Export Plug-In . SVG Version: 6.00 Build 0)  -->
<svg version="1.1" id="Layer_1" xmlns="http://www.w3.org/2000/svg" xmlns:xlink="http://www.w3.org/1999/xlink" x="0px" y="0px"
	 viewBox="0 0 13.5 18" style="enable-background:new 0 0 13.5 18;" xml:space="preserve">
<style type="text/css">
	.st0{fill:#D8DADC;}
</style>
<title>mini_icon_area</title>
<g id="Layer_2_1_">
	<g id="Layer_1-2">
		<g id="icon_marker">
			<path id="패스_1306" class="st0" d="M6.7,0L6.7,0C3,0,0,3,0,6.7l0,0l0,0C0,10.4,6.7,18,6.7,18s6.8-7.7,6.8-11.4V6.5
				C13.5,2.8,10.4,0,6.7,0L6.7,0z M6.7,16.6C4.7,14.1,1,9.1,1,6.7c0-1.5,0.6-3,1.7-4.1s2.6-1.7,4.1-1.7l0,0c3.2,0,5.8,2.6,5.9,5.8
				C12.7,9,8.7,14.1,6.7,16.6z M6.7,3.8C5.2,3.8,4,5,4,6.5s1.2,2.7,2.8,2.7c1.5,0,2.7-1.2,2.7-2.7S8.2,3.8,6.7,3.8L6.7,3.8z
				 M6.7,8.4C5.8,8.4,5,7.6,5,6.5s0.8-1.8,1.9-1.8c1,0,1.8,0.8,1.8,1.8C8.5,7.5,7.7,8.4,6.7,8.4L6.7,8.4z"/>
		</g>
	</g>
</g>
</svg>
