<?xml version="1.0" encoding="utf-8"?>
<!-- Generator: Adobe Illustrator 24.0.2, SVG Export Plug-In . SVG Version: 6.00 Build 0)  -->
<svg version="1.1" id="Layer_1" xmlns="http://www.w3.org/2000/svg" xmlns:xlink="http://www.w3.org/1999/xlink" x="0px" y="0px"
	 viewBox="0 0 18 18" style="enable-background:new 0 0 18 18;" xml:space="preserve">
<style type="text/css">
	.st0{fill:#D8DADC;}
</style>
<title>mini_icon_Circle</title>
<g id="Layer_2_1_">
	<g id="Layer_1-2">
		<g id="그룹_3136">
			<path id="패스_1524" class="st0" d="M9,1.7C5,1.7,1.7,5,1.7,9S5,16.3,9,16.3S16.3,13,16.3,9l0,0C16.3,5,13,1.7,9,1.7z M9,15.4
				c-3.6,0-6.4-2.9-6.4-6.4S5.4,2.6,9,2.6s6.4,2.9,6.4,6.4S12.6,15.4,9,15.4L9,15.4z M0.9,3.4H0V6h0.9V3.4z M0.9,12H0v2.6h0.9V12z
				 M0.9,7.7H0v2.6h0.9V7.7z M14.6,0H12v0.9h2.6V0z M10.3,0H7.7v0.9h2.6C10.3,0.9,10.3,0,10.3,0z M0.9,16.3H0v1.3
				C0,17.8,0.2,18,0.4,18h1.3v-0.9H0.9V16.3z M0.9,0.9h0.9V0H0.4C0.2,0,0,0.2,0,0.4l0,0l0,0v1.3h0.9V0.9z M6,0H3.4v0.9H6V0z
				 M17.2,17.1h-0.9V18h1.3c0.2,0,0.4-0.2,0.4-0.4l0,0l0,0v-1.3h-0.9v0.8H17.2z M17.1,10.3H18V7.7h-0.9V10.3z M3.4,18H6v-0.9H3.4V18
				z M17.6,0h-1.3v0.9h0.9v0.9H18V0.4C18,0.2,17.8,0,17.6,0L17.6,0z M17.1,6H18V3.4h-0.9V6z M7.7,18h2.6v-0.9H7.7V18z M12,18h2.6
				v-0.9H12V18z M17.1,14.6H18V12h-0.9V14.6z"/>
		</g>
	</g>
</g>
</svg>
