<?xml version="1.0" encoding="utf-8"?>
<!-- Generator: Adobe Illustrator 24.0.2, SVG Export Plug-In . SVG Version: 6.00 Build 0)  -->
<svg version="1.1" id="Layer_1" xmlns="http://www.w3.org/2000/svg" xmlns:xlink="http://www.w3.org/1999/xlink" x="0px" y="0px"
	 viewBox="0 0 18 18" style="enable-background:new 0 0 18 18;" xml:space="preserve">
<style type="text/css">
	.st0{fill:#6899EB;}
</style>
<title>mini_icon_FreeForm</title>
<g id="Layer_2_2_">
	<g id="Layer_1-2_1_">
		<g id="그룹_3135_1_">
			<path id="패스_1526_1_" class="st0" d="M16.8,13.9V4.1c1.1-0.6,1.5-1.9,0.9-2.9c-0.6-1.1-1.9-1.5-2.9-0.9
				c-0.7,0.4-1.2,1.1-1.1,1.9v0.2L10.4,6C9.7,5.4,8.5,5.4,7.8,6L4.3,2.2l0,0C4.3,1,3.4,0,2.2,0S0,1,0,2.2c0,0.9,0.5,1.7,1.3,2v9.7
				C0.5,14.2,0,15,0,15.9C0,17.1,1,18,2.2,18c0.8,0,1.6-0.4,2-1.2h9.7c0.5,1.1,1.8,1.5,2.9,1c0.8-0.4,1.2-1.3,1.2-1.9
				C18,15,17.5,14.2,16.8,13.9z M15.8,17.1c-0.8,0-1.3-0.8-1.3-1.2c0-0.7,0.6-1.3,1.3-1.3c0.8,0,1.4,0.6,1.3,1.3
				C17,16.6,16.5,17.1,15.8,17.1L15.8,17.1z M17.1,2.2c0,0.7-0.5,1.2-1.2,1.2h-0.1c-0.5,0-1-0.3-1.2-0.8c-0.1-0.2-0.1-0.3-0.1-0.5
				c0-0.3,0.1-0.7,0.4-0.9c0.5-0.5,1.3-0.5,1.8,0C17,1.5,17.1,1.8,17.1,2.2L17.1,2.2z M9.8,6.6c0.3,0.2,0.4,0.5,0.5,0.8
				c0,0.1,0,0.1,0,0.2c0,0.7-0.7,1.2-1.3,1.2C8.3,8.7,7.9,8.2,7.8,7.6c0-0.1,0-0.1,0-0.2C7.9,7.1,8,6.8,8.3,6.6
				C8.5,6.5,8.8,6.4,9,6.4C9.3,6.4,9.6,6.5,9.8,6.6L9.8,6.6z M2.2,0.9c0.7,0,1.2,0.6,1.2,1.3c0,0.6-0.5,1.1-1.1,1.2H2.2
				c-0.3,0-0.6-0.1-0.8-0.3C1.1,2.9,1,2.5,1,2.1C0.9,1.5,1.5,0.9,2.2,0.9z M3.1,16.7c-0.2,0.2-0.6,0.4-0.9,0.4
				c-0.7,0-1.2-0.6-1.3-1.3c0-0.4,0.2-0.7,0.4-0.9s0.5-0.3,0.8-0.3h0.1c0.7,0,1.2,0.6,1.2,1.2C3.4,16.2,3.3,16.5,3.1,16.7L3.1,16.7z
				 M4.3,15.8c0-1.2-0.9-2.1-2.1-2.2V4.3C3,4.3,3.6,3.9,4,3.2l3.2,3.4C7,7,6.9,7.3,6.9,7.7C7,8.9,8,9.8,9.2,9.7c1.1-0.1,1.9-0.9,2-2
				c0-0.3-0.1-0.7-0.2-1l3-3.3c0.4,0.6,1.1,1,1.8,1h0.1v9.4h-0.1c-1.2,0-2.2,0.8-2.2,2L4.3,15.8z"/>
		</g>
	</g>
</g>
</svg>
